# xmcd
#
# Track frame offsets:
#	150
#	21339
#	33845
#	53060
#	68597
#	85520
#	97917
#	112450
#	128254
#	145778
#	161542
#	176731
#	193812
#	209652
#	226627
#	240901
#	255918
#	272276
#	283046
#	298597
#	311503
#
# Disc length: 4377 seconds
#
# Revision: 1
# Processed by: cddbd v1.5.1PL0 Copyright (c) Steve Scherf et al.
# Submitted via: audiograbber 1.83.01
#
DISCID=16111715
DTITLE=Various Artist - ERG NCT 134
DYEAR=2005
DGENRE=Country
TTITLE0=Keith Urban - Better Life
TTITLE1=Aaron Tippon - Come Friday
TTITLE2=Dierks Bentley - Come A Little Closer
TTITLE3=Billy Dean - Race You To The Bottom
TTITLE4=Randy Travis - Angels
TTITLE5=Matt Jenkins - King Of The Castles
TTITLE6=Tracy Lawrence - Used To The Pain
TTITLE7=Lisa Brokop - Big Picture
TTITLE8=Alison Krauss And Union Station - Goodbye Is All We Have
TTITLE9=Brice Long - It's Only Monday
TTITLE10=Catherine Britt And Elton John - Where We Both Say Goodbye
TTITLE11=Jon Randall - I Shouldn't Do This 
TTITLE12=Jo Dee Messina - Delicious Surprise
TTITLE13=Carrie Underwood - Inside Your Heaven
TTITLE14=Aaron Pritchett - Lucky For Me
TTITLE15=Poverty Plainsmen - Sister Golden Hair
TTITLE16=Doc Walker - I Am Ready
TTITLE17=Clint Black - Rainbow In The Rain
TTITLE18=Zona Jones - Two Hearts
TTITLE19=Warren Brothers, The - Change
TTITLE20=Dwight Yoakum - International Headache
EXTD=
EXTT0=
EXTT1=
EXTT2=
EXTT3=
EXTT4=
EXTT5=
EXTT6=
EXTT7=
EXTT8=
EXTT9=
EXTT10=
EXTT11=
EXTT12=
EXTT13=
EXTT14=
EXTT15=
EXTT16=
EXTT17=
EXTT18=
EXTT19=
EXTT20=
PLAYORDER=
